<svg width="16" height="16" viewBox="0 0 16 16" fill="none" xmlns="http://www.w3.org/2000/svg">
<path d="M9.21333 1.99936C9.21333 1.86573 9.13353 1.74501 9.01057 1.69266C8.88762 1.64032 8.74529 1.66646 8.64896 1.75908L7.46366 2.89879C5.69884 4.59573 4.20763 6.55587 3.04307 8.70945C3.01565 8.75787 3 8.81383 3 8.87345C3 9.05755 3.14924 9.20678 3.33333 9.20678H6.20667V13.9994C6.20667 14.1314 6.28456 14.2509 6.4053 14.3043C6.52604 14.3576 6.66689 14.3347 6.76447 14.2458L7.29481 13.7627C9.15129 12.0716 10.7268 10.0957 11.9622 7.90937L12.2902 7.3288C12.3485 7.22559 12.3476 7.09919 12.2879 6.99681C12.2282 6.89443 12.1185 6.83148 12 6.83148H9.21333V1.99936Z" fill="#D6ED17"/>
</svg>
