<svg width="20" height="20" viewBox="0 0 20 20" fill="none" xmlns="http://www.w3.org/2000/svg">
<path d="M10.6833 3.42202C10.4886 3.07396 10.1239 2.92076 9.79928 2.91677C9.47534 2.91278 9.10199 3.05784 8.91036 3.41618L8.77346 3.67216C6.69002 7.568 5.02048 11.6292 3.78534 15.8065C3.65311 16.2537 3.90263 16.626 4.20032 16.8046C4.49698 16.9826 4.91663 17.0252 5.27608 16.7982L9.13565 14.3606C9.61421 14.0584 10.2925 14.0624 10.7937 14.3847L14.7332 16.9181C15.0878 17.1462 15.5058 17.122 15.8087 16.9443C16.1169 16.7634 16.3519 16.3836 16.2071 15.9387C14.8374 11.7307 13.0372 7.62837 10.8285 3.68147L10.6833 3.42202Z" fill="#D6ED17"/>
</svg>
